<svg width="35" height="34" viewBox="0 0 35 34" fill="none" xmlns="http://www.w3.org/2000/svg">
<g id="apple">
<path id="bg" d="M32.6252 17.0003C32.6252 25.1147 25.812 31.7003 17.4002 31.7003C8.98836 31.7003 2.17517 25.1147 2.17517 17.0003C2.17517 8.87854 8.98836 2.30029 17.4002 2.30029C25.812 2.30029 32.6252 8.87854 32.6252 17.0003Z" fill="#283544"/>
<path id="apple_2" d="M24.5364 13.2805C24.4533 13.3273 22.4755 14.3149 22.4755 16.5045C22.5688 19.0017 24.9714 19.8774 25.0126 19.8774C24.9714 19.9242 24.6499 21.0704 23.6975 22.2719C22.9416 23.3068 22.1027 24.3503 20.8287 24.3503C19.617 24.3503 19.182 23.6605 17.7837 23.6605C16.2822 23.6605 15.8573 24.3503 14.7077 24.3503C13.4337 24.3503 12.5327 23.2509 11.7356 22.2257C10.7001 20.8838 9.81998 18.778 9.78891 16.7561C9.76797 15.6847 9.99628 14.6315 10.5758 13.737C11.3938 12.4881 12.8542 11.6403 14.449 11.6123C15.6709 11.5753 16.7584 12.3671 17.5041 12.3671C18.2187 12.3671 19.5548 11.6123 21.0665 11.6123C21.719 11.6129 23.459 11.7898 24.5364 13.2805ZM17.4008 11.3984C17.1833 10.42 17.7837 9.44154 18.343 8.8174C19.0577 8.06261 20.1864 7.55029 21.1597 7.55029C21.2219 8.52873 20.8281 9.48833 20.1242 10.1872C19.4927 10.942 18.4052 11.5102 17.4008 11.3984Z" fill="white"/>
</g>
</svg>
