<svg width="32" height="32" viewBox="0 0 32 32" fill="none" xmlns="http://www.w3.org/2000/svg">
<g id="google">
<path id="vector" d="M29.4515 16.7028C29.4515 15.5804 29.3586 14.7614 29.1574 13.9121H16.0801V18.9777H23.7562C23.6015 20.2366 22.7658 22.1324 20.9086 23.4064L20.8826 23.576L25.0174 26.7151L25.3039 26.7431C27.9348 24.3619 29.4515 20.8584 29.4515 16.7028Z" fill="#00AA11"/>
<path id="vector_2" d="M16.0793 30.0491C19.84 30.0491 22.9971 28.8357 25.3031 26.7427L20.9078 23.4059C19.7317 24.2098 18.1531 24.7709 16.0793 24.7709C12.396 24.7709 9.26987 22.3898 8.15548 19.0986L7.99214 19.1122L3.6927 22.3731L3.63647 22.5263C5.92692 26.9853 10.6317 30.0491 16.0793 30.0491Z" fill="#34A853"/>
<path id="vector_3" d="M8.15618 19.099C7.86214 18.2497 7.69197 17.3396 7.69197 16.3994C7.69197 15.459 7.86214 14.549 8.14071 13.6997L8.13293 13.5188L3.7796 10.2056L3.63717 10.272C2.69316 12.1223 2.15149 14.2002 2.15149 16.3994C2.15149 18.5985 2.69316 20.6763 3.63717 22.5266L8.15618 19.099Z" fill="#FBBC05"/>
<path id="vector_4" d="M16.0794 8.02747C18.6948 8.02747 20.4591 9.13464 21.4651 10.0599L25.396 6.29851C22.9818 4.09935 19.8401 2.74951 16.0794 2.74951C10.6317 2.74951 5.92693 5.81315 3.63647 10.2721L8.14004 13.6998C9.2699 10.4087 12.3961 8.02747 16.0794 8.02747Z" fill="#EB4335"/>
</g>
</svg>
