<svg width="119" height="100" viewBox="0 0 119 100" fill="none" xmlns="http://www.w3.org/2000/svg">
<g id="&#240;&#159;&#166;&#134; icon &#34;twitter&#34;">
<path id="Vector" d="M106.774 24.9217C106.853 26.018 106.853 27.1081 106.853 28.1982C106.853 61.5587 82.3106 100 37.4585 100C23.6401 100 10.8028 95.8589 0 88.6668C1.96194 88.8986 3.85121 88.9801 5.89187 88.9801C17.2941 88.9801 27.7881 84.9956 36.1747 78.1982C25.4507 77.9664 16.4645 70.6992 13.3642 60.7004C14.872 60.9322 16.3858 61.0888 17.9723 61.0888C20.1583 61.0888 22.3564 60.7756 24.3971 60.2305C13.2128 57.8875 4.83824 47.7321 4.83824 35.4655V35.1522C8.08997 37.0254 11.8625 38.197 15.859 38.3536C9.28893 33.8303 4.98356 26.0932 4.98356 17.3412C4.98356 12.6551 6.18858 8.35735 8.3019 4.61095C20.3097 19.916 38.3607 29.9211 58.5978 31.0174C58.2223 29.138 57.9922 27.1896 57.9922 25.2349C57.9922 11.3269 68.8676 0 82.3832 0C89.4074 0 95.7474 3.04473 100.204 7.96892C105.715 6.87257 110.995 4.76131 115.682 1.8732C113.871 7.73086 110.014 12.6551 104.958 15.7812C109.869 15.2299 114.628 13.8266 119 11.8719C115.682 16.8713 111.534 21.3256 106.774 24.9217Z" fill="#00ACEE"/>
</g>
</svg>
